<mxfile host="app.diagrams.net" modified="2024-04-15T13:53:38.631Z" agent="Mozilla/5.0 (Macintosh; Intel Mac OS X 10_15_7) AppleWebKit/605.1.15 (KHTML, like Gecko) Version/16.6 Safari/605.1.15" etag="_yDEetrAb8qsNOzZvqU5" version="24.2.5" type="device">
  <diagram id="f106602c-feb2-e66a-4537-3a34d633f6aa" name="Page-1">
    <mxGraphModel dx="4152" dy="2600" grid="1" gridSize="10" guides="1" tooltips="1" connect="1" arrows="1" fold="1" page="1" pageScale="1" pageWidth="1169" pageHeight="827" background="none" math="0" shadow="0">
      <root>
        <mxCell id="0" />
        <mxCell id="1" parent="0" />
        <mxCell id="n6O8Phn_IgQ7xW1vVxIb-38" value="" style="strokeColor=#dddddd;shadow=1;strokeWidth=1;rounded=1;absoluteArcSize=1;arcSize=2;" vertex="1" parent="1">
          <mxGeometry x="370.00333333333333" y="338.999756097561" width="325.06666666666666" height="76.09756097560975" as="geometry" />
        </mxCell>
        <mxCell id="n6O8Phn_IgQ7xW1vVxIb-39" value="&lt;font&gt;&lt;font style=&quot;font-size: 12px;&quot; color=&quot;#000000&quot;&gt;&lt;span style=&quot;caret-color: rgb(0, 0, 0);&quot;&gt;infinity-search-load-balancer&lt;/span&gt;&lt;/font&gt;&lt;br&gt;&lt;/font&gt;Cloud Load Balancing" style="editableCssRules=.*;html=1;fontColor=#999999;shape=image;verticalLabelPosition=middle;verticalAlign=middle;labelPosition=right;align=left;spacingLeft=20;part=1;points=[];imageAspect=0;image=data:image/svg+xml,PHN2ZyB4bWxucz0iaHR0cDovL3d3dy53My5vcmcvMjAwMC9zdmciIHhtbG5zOnY9Imh0dHBzOi8vdmVjdGEuaW8vbmFubyIgd2lkdGg9IjIwIiBoZWlnaHQ9IjIwIiB2aWV3Qm94PSIwIDAgMjAgMjAiPiYjeGE7CTxzdHlsZSB0eXBlPSJ0ZXh0L2NzcyI+JiN4YTsJLnN0MHtmaWxsOiM0Mjg1ZjQ7fSYjeGE7CS5zdDF7ZmlsbDojNjY5ZGY2O30mI3hhOwkuc3Qye2ZpbGw6I2FlY2JmYTt9JiN4YTsJPC9zdHlsZT4mI3hhOwk8cGF0aCBjbGFzcz0ic3QxIiBkPSJNMTYgMTBoMnY0aC0yem0tNyAwaDJ2NEg5em0tNyAwaDJ2NEgyeiIvPiYjeGE7CTxwYXRoIGNsYXNzPSJzdDAiIGQ9Ik05IDVoMnY0SDl6Ii8+JiN4YTsJPHBhdGggY2xhc3M9InN0MSIgZD0iTTIgOWgxNnYySDJ6Ii8+JiN4YTsJPHBhdGggY2xhc3M9InN0MiIgZD0iTTQgMGgxMnY1SDR6Ii8+JiN4YTsJPHBhdGggY2xhc3M9InN0MSIgZD0iTTEwIDBoNnY1aC02eiIvPiYjeGE7CTxwYXRoIGNsYXNzPSJzdDIiIGQ9Ik0xNCAxNGg2djZoLTZ6TTAgMTRoNnY2SDB6Ii8+JiN4YTsJPHBhdGggY2xhc3M9InN0MSIgZD0iTTMgMTRoM3Y2SDN6Ii8+JiN4YTsJPHBhdGggY2xhc3M9InN0MiIgZD0iTTcgMTRoNnY2SDd6Ii8+JiN4YTsJPHBhdGggY2xhc3M9InN0MSIgZD0iTTEwIDE0aDN2NmgtM3ptNyAwaDN2NmgtM3oiLz4mI3hhOzwvc3ZnPg==;" vertex="1" parent="n6O8Phn_IgQ7xW1vVxIb-38">
          <mxGeometry width="30" height="30" relative="1" as="geometry">
            <mxPoint x="15" y="15" as="offset" />
          </mxGeometry>
        </mxCell>
        <mxCell id="n6O8Phn_IgQ7xW1vVxIb-55" value="" style="strokeColor=#dddddd;shadow=1;strokeWidth=1;rounded=1;absoluteArcSize=1;arcSize=2;" vertex="1" parent="1">
          <mxGeometry x="1010.0033333333331" y="333.8290243902439" width="296.8" height="82.4390243902439" as="geometry" />
        </mxCell>
        <mxCell id="n6O8Phn_IgQ7xW1vVxIb-56" value="&lt;font color=&quot;#000000&quot;&gt;infinity-search-gke-cluster&lt;/font&gt;&lt;br&gt;Kubernetes Engine" style="editableCssRules=.*;html=1;fontColor=#999999;shape=image;verticalLabelPosition=middle;verticalAlign=middle;labelPosition=right;align=left;spacingLeft=20;part=1;points=[];imageAspect=0;image=data:image/svg+xml,PHN2ZyB4bWxucz0iaHR0cDovL3d3dy53My5vcmcvMjAwMC9zdmciIHhtbG5zOnY9Imh0dHBzOi8vdmVjdGEuaW8vbmFubyIgd2lkdGg9IjMyOS45MjU5OTcyMzE3OTM4IiBoZWlnaHQ9IjM3OC4yODQ5OTAzMTEyNzg4IiB2aWV3Qm94PSIwIDAgODcuMjkyOTk5MjY3NTc4MTIgMTAwLjA4Nzk5NzQzNjUyMzQ0Ij4mI3hhOzxzdHlsZSB0eXBlPSJ0ZXh0L2NzcyI+JiN4YTsJLnN0MHtmaWxsOiNhZWNiZmE7fSYjeGE7CS5zdDF7ZmlsbDojNjY5ZGY2O30mI3hhOwkuc3Qye2ZpbGw6IzQyODVmNDt9JiN4YTs8L3N0eWxlPiYjeGE7CTxwYXRoIGNsYXNzPSJzdDAiIGQ9Ik00My43NTEgMEwwIDI1LjQ2NXYyLjU4OCA0Ni45Mmw0My43NTIgMjUuMTE1IDQzLjU0MS0yNS4xMjFWMjUuNDczem0yLjQzOCAxMS44NTNsMzIuMTAzIDE4Ljc4MlY2OS43N0w0My43MzkgODkuNzA1IDkgNjkuNzYyVjMwLjY0MWwzMi4xOS0xOC43MzZ2MTQuMTU0TDI0LjUwMyAzNi4xNTNsMTkuMTcyIDExLjUwMiAxOC44ODYtMTEuNTU0LTE2LjM3Mi0xMC4wMjR6Ii8+JiN4YTsJPHBhdGggY2xhc3M9InN0MSIgZD0iTTIyLjAyNSA0MC40OTZsLjE2NiAxOS4xNDMtMTMuMjQ3IDcuMzN2Mi43NDJsMi42MzcgMS41MTQgMTIuNjQ4LTYuOTk5IDE2Ljk2MSAxMC42MDJWNTEuOTkzeiIvPiYjeGE7CTxwYXRoIGNsYXNzPSJzdDIiIGQ9Ik02NS4zNDQgNDAuMjZMNDYuMTg5IDUxLjk3OXYyMi44NDdsMTYuODk5LTEwLjU3NiAxMi41MzkgNi45NzQgMi42MDktMS41MDV2LTIuNzY1bC0xMi43ODQtNy4xMTJ6Ii8+JiN4YTs8L3N2Zz4=;" vertex="1" parent="n6O8Phn_IgQ7xW1vVxIb-55">
          <mxGeometry width="26" height="30" relative="1" as="geometry">
            <mxPoint x="17" y="15" as="offset" />
          </mxGeometry>
        </mxCell>
        <mxCell id="n6O8Phn_IgQ7xW1vVxIb-57" value="" style="strokeColor=#dddddd;shadow=1;strokeWidth=1;rounded=1;absoluteArcSize=1;arcSize=2;" vertex="1" parent="1">
          <mxGeometry x="705" y="1380" width="260" height="60" as="geometry" />
        </mxCell>
        <mxCell id="n6O8Phn_IgQ7xW1vVxIb-58" value="&lt;font color=&quot;#000000&quot;&gt;Virtual Machines API&lt;/font&gt;&lt;br&gt;Compute Engine" style="editableCssRules=.*;html=1;fontColor=#999999;shape=image;verticalLabelPosition=middle;verticalAlign=middle;labelPosition=right;align=left;spacingLeft=20;part=1;points=[];imageAspect=0;image=data:image/svg+xml,PHN2ZyB4bWxucz0iaHR0cDovL3d3dy53My5vcmcvMjAwMC9zdmciIHhtbG5zOnY9Imh0dHBzOi8vdmVjdGEuaW8vbmFubyIgd2lkdGg9IjIwIiBoZWlnaHQ9IjIwIiB2aWV3Qm94PSIwIDAgMjAgMjAiPiYjeGE7CTxzdHlsZSB0eXBlPSJ0ZXh0L2NzcyI+JiN4YTsJLnN0MHtmaWxsOiM0Mjg1ZjQ7fSYjeGE7CS5zdDF7ZmlsbDojNjY5ZGY2O30mI3hhOwkuc3Qye2ZpbGw6I2FlY2JmYTt9JiN4YTsJPC9zdHlsZT4mI3hhOwk8cGF0aCBjbGFzcz0ic3QyIiBkPSJNNyA3aDZ2Nkg3eiIvPiYjeGE7CTxwYXRoIGNsYXNzPSJzdDEiIGQ9Ik05IDBoMnY0SDl6TTUgMGgydjRINXptOCAwaDJ2NGgtMnoiLz4mI3hhOwk8cGF0aCBjbGFzcz0ic3QwIiBkPSJNOSAxNmgydjRIOXptLTQgMGgydjRINXptOCAwaDJ2NGgtMnptMy01VjloNHYyem0wIDR2LTJoNHYyem0wLThWNWg0djJ6Ii8+JiN4YTsJPHBhdGggY2xhc3M9InN0MSIgZD0iTTAgMTFWOWg0djJ6bTAgNHYtMmg0djJ6bTAtOFY1aDR2MnoiLz4mI3hhOwk8cGF0aCBjbGFzcz0ic3QyIiBkPSJNMyAzdjE0aDE0VjN6bTEyIDEySDVWNWgxMHoiLz4mI3hhOwk8cGF0aCBjbGFzcz0ic3QxIiBkPSJNMTAgMTBsLTMgM2g2eiIvPiYjeGE7CTxwYXRoIGNsYXNzPSJzdDAiIGQ9Ik0xMyA3bC0zIDMgMyAzeiIvPiYjeGE7PC9zdmc+;" vertex="1" parent="n6O8Phn_IgQ7xW1vVxIb-57">
          <mxGeometry width="30" height="30" relative="1" as="geometry">
            <mxPoint x="15" y="15" as="offset" />
          </mxGeometry>
        </mxCell>
        <mxCell id="n6O8Phn_IgQ7xW1vVxIb-86" style="edgeStyle=orthogonalEdgeStyle;rounded=0;orthogonalLoop=1;jettySize=auto;html=1;" edge="1" parent="1" source="n6O8Phn_IgQ7xW1vVxIb-51" target="n6O8Phn_IgQ7xW1vVxIb-68">
          <mxGeometry relative="1" as="geometry" />
        </mxCell>
        <mxCell id="n6O8Phn_IgQ7xW1vVxIb-51" value="Hosts" style="rhombus;whiteSpace=wrap;html=1;" vertex="1" parent="1">
          <mxGeometry x="1400" y="335.05000000000007" width="80" height="80" as="geometry" />
        </mxCell>
        <mxCell id="n6O8Phn_IgQ7xW1vVxIb-64" value="Container&#xa;Registry" style="sketch=0;html=1;verticalAlign=top;labelPosition=center;verticalLabelPosition=bottom;align=center;spacingTop=-6;fontSize=11;fontStyle=1;fontColor=#999999;shape=image;aspect=fixed;imageAspect=0;image=data:image/svg+xml,PHN2ZyB4bWxucz0iaHR0cDovL3d3dy53My5vcmcvMjAwMC9zdmciIHhtbG5zOnY9Imh0dHBzOi8vdmVjdGEuaW8vbmFubyIgd2lkdGg9IjM3Ny4xNTkzMDIxNjAyNjMwNSIgaGVpZ2h0PSIzMzYuMTYyNDk5MDAzMzEwOCIgdmlld0JveD0iLTAuMDU4MDAwMDA1NzgxNjUwNTQgMC4xMTI5OTk5OTgwMzMwNDY3MiA5OS43OTAwMDA5MTU1MjczNCA4OC45NDMwMDA3OTM0NTcwMyI+JiN4YTs8c3R5bGUgdHlwZT0idGV4dC9jc3MiPiYjeGE7CS5zdDB7ZmlsbDojNjY5ZGY2O30mI3hhOwkuc3Qxe2ZpbGw6I2FlY2JmYTt9JiN4YTsJLnN0MntmaWxsOiM0Mjg1ZjQ7fSYjeGE7PC9zdHlsZT4mI3hhOwk8cGF0aCBjbGFzcz0ic3QwIiBkPSJNNTMuMjQzIDYyLjA5VjQ3LjA5NGwxMy4yMDEgOC40MTZ2MTUuMDM4em0tMzMuMDIxIDBWNDcuMDk0bDEzLjIwMSA4LjQxNnYxNS4wMzh6bTE2LjUxMS0zMi4yODVWMTQuODFsMTMuMjAxIDguNDE2djE1LjAzOHptNjIuOTk5IDMzLjk2VjI1LjQwM2wtOS41NjItMS44ODR2NDIuMTMxem0tOTkuNzg4IDBWMjUuNDAzbDkuNTYyLTEuODg0djQyLjEzMXoiLz4mI3hhOwk8cGF0aCBjbGFzcz0ic3QxIiBkPSJNNTMuMTg1IDQ3LjA5NGwxMy4yNTgtOC4yODcgMTMuMDE2IDguMjM0LTEzLjAxNiA4LjQ2OXptLTMzLjAyMSAwbDEzLjI1OC04LjI4NyAxMy4wMTYgOC4yMzQtMTMuMDE2IDguNDY5ek0zNi42NzUgMTQuODFsMTMuMjU4LTguMjg3IDEzLjAxNiA4LjIzNC0xMy4wMTYgOC40Njl6bTYzLjA1NiA0OC45NTZ2MTIuMjE3TDc3LjAxIDg5LjA1NVY3Ny43NTJ6bTAtMzguMzYzVjEzLjE4Nkw3Ny4wMS4xMTN2MTEuMzAzek0tLjA1OCA2My43NjZ2MTIuMjE3bDIyLjcyMSAxMy4wNzNWNzcuNzUyem0wLTM4LjM2M1YxMy4xODZMMjIuNjYzLjExM3YxMS4zMDN6Ii8+JiN4YTsJPHBhdGggY2xhc3M9InN0MiIgZD0iTTY2LjQ0NCA3MC41NDdWNTUuNTFsMTMuMDE2LTguNDY5djE1LjR6bS0zMy4wMjEgMFY1NS41MWwxMy4wMTYtOC40Njl2MTUuNHptMTYuNTExLTMyLjI4NVYyMy4yMjVsMTMuMDE2LTguNDY5djE1LjR6bTQ5Ljc5OCAyNS41MDNsLTkuNTYyIDUuODh2LTMuOTk2em0wLTM4LjM2M2wtOS41NjItNS44OHYzLjk5NnpNLS4wNTggNjMuNzY2bDkuNTYyIDUuODh2LTMuOTk2em0wLTM4LjM2M2w5LjU2Mi01Ljg4djMuOTk2eiIvPiYjeGE7PC9zdmc+;" vertex="1" parent="1">
          <mxGeometry x="1209" y="700" width="42" height="42" as="geometry" />
        </mxCell>
        <mxCell id="n6O8Phn_IgQ7xW1vVxIb-65" value="" style="strokeColor=#dddddd;shadow=1;strokeWidth=1;rounded=1;absoluteArcSize=1;arcSize=2;" vertex="1" parent="1">
          <mxGeometry x="1595" y="810" width="220" height="60" as="geometry" />
        </mxCell>
        <mxCell id="n6O8Phn_IgQ7xW1vVxIb-66" value="&lt;span style=&quot;caret-color: rgb(0, 0, 0); color: rgb(0, 0, 0);&quot;&gt;infinity-search-cloud-built&lt;/span&gt;&lt;br&gt;Cloud Build" style="editableCssRules=.*;html=1;fontColor=#999999;shape=image;verticalLabelPosition=middle;verticalAlign=middle;labelPosition=right;align=left;spacingLeft=20;part=1;points=[];imageAspect=0;image=data:image/svg+xml,PHN2ZyB4bWxucz0iaHR0cDovL3d3dy53My5vcmcvMjAwMC9zdmciIHhtbG5zOnY9Imh0dHBzOi8vdmVjdGEuaW8vbmFubyIgd2lkdGg9IjE3LjMyOTk5OTkyMzcwNjA1NSIgaGVpZ2h0PSIxOS42MTAwMDA2MTAzNTE1NjIiIHZpZXdCb3g9IjAgMCAxNy4zMjk5OTk5MjM3MDYwNTUgMTkuNjEwMDAwNjEwMzUxNTYyIj4mI3hhOwk8c3R5bGUgdHlwZT0idGV4dC9jc3MiPiYjeGE7CS5zdDB7ZmlsbDojNDI4NWY0O30mI3hhOwkuc3Qxe2ZpbGw6IzY2OWRmNjt9JiN4YTsJLnN0MntmaWxsOiNhZWNiZmE7fSYjeGE7CTwvc3R5bGU+JiN4YTsJPHBhdGggY2xhc3M9InN0MCIgZD0iTTEyLjE4IDcuOThMMTEgNy4yOWwtMy41MiA2LjEgMS4xOC42OCAzLjUyLTIuMDN6IiBmaWxsPSIjNDI4NWY0Ii8+JiN4YTsJPHBhdGggY2xhc3M9InN0MSIgZD0iTTYuMzIgMTIuNzJsMy41My02LjA5LTEuMTktLjY5LTMuNTIgMi4wNHY0LjA2eiIgZmlsbD0iIzY2OWRmNiIvPiYjeGE7CTxwYXRoIGNsYXNzPSJzdDIiIGQ9Ik0zLjc1IDcuOThMMCA1LjgxdjkuMmw3Ljk3IDQuNnYtNC4zM2wtNC4yMi0yLjQ0em05LjEzLTEuMmwzLjc2LTIuMTdMOC42NiAwIC42OCA0LjYxbDMuNzYgMi4xNyA0LjIyLTIuNDR6TTkuMzUgMTkuNjFsNy45OC00LjZ2LTkuMmwtMy43NiAyLjE3djQuODZsLTQuMjIgMi40NHoiIGZpbGw9IiNhZWNiZmEiLz4mI3hhOzwvc3ZnPg==;" vertex="1" parent="n6O8Phn_IgQ7xW1vVxIb-65">
          <mxGeometry width="26" height="30" relative="1" as="geometry">
            <mxPoint x="17" y="15" as="offset" />
          </mxGeometry>
        </mxCell>
        <mxCell id="n6O8Phn_IgQ7xW1vVxIb-71" value="" style="group" vertex="1" connectable="0" parent="1">
          <mxGeometry x="1570" y="337.04999999999995" width="270" height="76" as="geometry" />
        </mxCell>
        <mxCell id="n6O8Phn_IgQ7xW1vVxIb-68" value="&lt;font style=&quot;text-align: left; white-space: nowrap;&quot; color=&quot;#000000&quot;&gt;&amp;nbsp; &amp;nbsp; &amp;nbsp; &amp;nbsp; &amp;nbsp; &amp;nbsp; &amp;nbsp; &amp;nbsp; &amp;nbsp; &amp;nbsp; &amp;nbsp;infinity-search-docker-container&amp;nbsp;&lt;/font&gt;&lt;br style=&quot;caret-color: rgb(153, 153, 153); color: rgb(153, 153, 153); text-align: left; white-space: nowrap;&quot;&gt;&lt;span style=&quot;caret-color: rgb(153, 153, 153); color: rgb(153, 153, 153); text-align: left; white-space: nowrap;&quot;&gt;&amp;nbsp;Docker Containers&lt;/span&gt;" style="rounded=0;whiteSpace=wrap;html=1;" vertex="1" parent="n6O8Phn_IgQ7xW1vVxIb-71">
          <mxGeometry width="270" height="76" as="geometry" />
        </mxCell>
        <mxCell id="n6O8Phn_IgQ7xW1vVxIb-70" value="" style="image;sketch=0;aspect=fixed;html=1;points=[];align=center;fontSize=12;image=img/lib/mscae/Docker.svg;movable=1;resizable=1;rotatable=1;deletable=1;editable=1;locked=0;connectable=1;" vertex="1" parent="n6O8Phn_IgQ7xW1vVxIb-71">
          <mxGeometry x="11.73913043478261" y="4.75" width="69.5115" height="57" as="geometry" />
        </mxCell>
        <mxCell id="n6O8Phn_IgQ7xW1vVxIb-74" value="" style="endArrow=none;html=1;rounded=0;" edge="1" parent="1" source="n6O8Phn_IgQ7xW1vVxIb-55" target="n6O8Phn_IgQ7xW1vVxIb-51">
          <mxGeometry width="50" height="50" relative="1" as="geometry">
            <mxPoint x="1500" y="470" as="sourcePoint" />
            <mxPoint x="1550" y="420" as="targetPoint" />
          </mxGeometry>
        </mxCell>
        <mxCell id="n6O8Phn_IgQ7xW1vVxIb-84" style="edgeStyle=orthogonalEdgeStyle;rounded=0;orthogonalLoop=1;jettySize=auto;html=1;" edge="1" parent="1" source="n6O8Phn_IgQ7xW1vVxIb-76" target="n6O8Phn_IgQ7xW1vVxIb-64">
          <mxGeometry relative="1" as="geometry" />
        </mxCell>
        <mxCell id="n6O8Phn_IgQ7xW1vVxIb-76" value="uses" style="rhombus;whiteSpace=wrap;html=1;" vertex="1" parent="1">
          <mxGeometry x="1190" y="520" width="80" height="80" as="geometry" />
        </mxCell>
        <mxCell id="n6O8Phn_IgQ7xW1vVxIb-77" value="" style="endArrow=none;html=1;rounded=0;" edge="1" parent="1" target="n6O8Phn_IgQ7xW1vVxIb-76">
          <mxGeometry width="50" height="50" relative="1" as="geometry">
            <mxPoint x="1230.0025904445156" y="426.2680487804878" as="sourcePoint" />
            <mxPoint x="1230.000720896866" y="530.0007208968659" as="targetPoint" />
          </mxGeometry>
        </mxCell>
        <mxCell id="n6O8Phn_IgQ7xW1vVxIb-85" style="edgeStyle=orthogonalEdgeStyle;rounded=0;orthogonalLoop=1;jettySize=auto;html=1;" edge="1" parent="1" source="n6O8Phn_IgQ7xW1vVxIb-79" target="n6O8Phn_IgQ7xW1vVxIb-55">
          <mxGeometry relative="1" as="geometry" />
        </mxCell>
        <mxCell id="n6O8Phn_IgQ7xW1vVxIb-79" value="balanced by" style="rhombus;whiteSpace=wrap;html=1;" vertex="1" parent="1">
          <mxGeometry x="800" y="335.05" width="90" height="80" as="geometry" />
        </mxCell>
        <mxCell id="n6O8Phn_IgQ7xW1vVxIb-82" value="" style="endArrow=none;html=1;rounded=0;" edge="1" parent="1" source="n6O8Phn_IgQ7xW1vVxIb-38" target="n6O8Phn_IgQ7xW1vVxIb-79">
          <mxGeometry width="50" height="50" relative="1" as="geometry">
            <mxPoint x="1178" y="436" as="sourcePoint" />
            <mxPoint x="1178" y="540" as="targetPoint" />
          </mxGeometry>
        </mxCell>
        <mxCell id="n6O8Phn_IgQ7xW1vVxIb-89" style="edgeStyle=orthogonalEdgeStyle;rounded=0;orthogonalLoop=1;jettySize=auto;html=1;" edge="1" parent="1" source="n6O8Phn_IgQ7xW1vVxIb-87" target="n6O8Phn_IgQ7xW1vVxIb-68">
          <mxGeometry relative="1" as="geometry" />
        </mxCell>
        <mxCell id="n6O8Phn_IgQ7xW1vVxIb-87" value="built from" style="rhombus;whiteSpace=wrap;html=1;" vertex="1" parent="1">
          <mxGeometry x="1665" y="550" width="80" height="80" as="geometry" />
        </mxCell>
        <mxCell id="n6O8Phn_IgQ7xW1vVxIb-88" value="" style="endArrow=none;html=1;rounded=0;" edge="1" parent="1" source="n6O8Phn_IgQ7xW1vVxIb-87" target="n6O8Phn_IgQ7xW1vVxIb-65">
          <mxGeometry width="50" height="50" relative="1" as="geometry">
            <mxPoint x="1168" y="426" as="sourcePoint" />
            <mxPoint x="1168" y="530" as="targetPoint" />
          </mxGeometry>
        </mxCell>
        <mxCell id="n6O8Phn_IgQ7xW1vVxIb-91" value="Stored in" style="rhombus;whiteSpace=wrap;html=1;" vertex="1" parent="1">
          <mxGeometry x="1360" y="530" width="80" height="80" as="geometry" />
        </mxCell>
        <mxCell id="n6O8Phn_IgQ7xW1vVxIb-92" value="" style="endArrow=none;html=1;rounded=0;" edge="1" parent="1" source="n6O8Phn_IgQ7xW1vVxIb-91" target="n6O8Phn_IgQ7xW1vVxIb-68">
          <mxGeometry width="50" height="50" relative="1" as="geometry">
            <mxPoint x="1317" y="385" as="sourcePoint" />
            <mxPoint x="1410" y="385" as="targetPoint" />
          </mxGeometry>
        </mxCell>
        <mxCell id="n6O8Phn_IgQ7xW1vVxIb-93" style="edgeStyle=orthogonalEdgeStyle;rounded=0;orthogonalLoop=1;jettySize=auto;html=1;entryX=1;entryY=0.5;entryDx=0;entryDy=0;" edge="1" parent="1" source="n6O8Phn_IgQ7xW1vVxIb-91" target="n6O8Phn_IgQ7xW1vVxIb-64">
          <mxGeometry relative="1" as="geometry">
            <Array as="points">
              <mxPoint x="1400" y="720" />
            </Array>
          </mxGeometry>
        </mxCell>
        <mxCell id="n6O8Phn_IgQ7xW1vVxIb-104" value="" style="group" vertex="1" connectable="0" parent="1">
          <mxGeometry x="1570" y="1060" width="270" height="72.95000000000005" as="geometry" />
        </mxCell>
        <mxCell id="n6O8Phn_IgQ7xW1vVxIb-98" value="&lt;font style=&quot;text-align: left; white-space: nowrap;&quot; color=&quot;#000000&quot;&gt;&amp;nbsp;infinity-search-pipelines&amp;nbsp;&lt;/font&gt;&lt;div&gt;&lt;span style=&quot;caret-color: rgb(153, 153, 153); color: rgb(153, 153, 153); text-align: left; white-space: nowrap;&quot;&gt;&amp;nbsp;CI/CD Pipelines&lt;/span&gt;&lt;/div&gt;" style="rounded=0;whiteSpace=wrap;html=1;" vertex="1" parent="n6O8Phn_IgQ7xW1vVxIb-104">
          <mxGeometry width="270" height="72.95" as="geometry" />
        </mxCell>
        <mxCell id="n6O8Phn_IgQ7xW1vVxIb-101" value="" style="group" vertex="1" connectable="0" parent="n6O8Phn_IgQ7xW1vVxIb-104">
          <mxGeometry width="270" height="72.95000000000005" as="geometry" />
        </mxCell>
        <mxCell id="n6O8Phn_IgQ7xW1vVxIb-102" value="" style="verticalLabelPosition=bottom;html=1;verticalAlign=top;align=center;strokeColor=none;fillColor=#00BEF2;shape=mxgraph.azure.git_repository;" vertex="1" parent="n6O8Phn_IgQ7xW1vVxIb-101">
          <mxGeometry x="10" y="11.46999999999997" width="50" height="50" as="geometry" />
        </mxCell>
        <mxCell id="n6O8Phn_IgQ7xW1vVxIb-107" style="edgeStyle=orthogonalEdgeStyle;rounded=0;orthogonalLoop=1;jettySize=auto;html=1;" edge="1" parent="1" source="n6O8Phn_IgQ7xW1vVxIb-105" target="n6O8Phn_IgQ7xW1vVxIb-65">
          <mxGeometry relative="1" as="geometry" />
        </mxCell>
        <mxCell id="n6O8Phn_IgQ7xW1vVxIb-105" value="trigger" style="rhombus;whiteSpace=wrap;html=1;" vertex="1" parent="1">
          <mxGeometry x="1665" y="940" width="80" height="80" as="geometry" />
        </mxCell>
        <mxCell id="n6O8Phn_IgQ7xW1vVxIb-106" value="" style="endArrow=none;html=1;rounded=0;" edge="1" parent="1" source="n6O8Phn_IgQ7xW1vVxIb-105" target="n6O8Phn_IgQ7xW1vVxIb-98">
          <mxGeometry width="50" height="50" relative="1" as="geometry">
            <mxPoint x="1715" y="640" as="sourcePoint" />
            <mxPoint x="1715" y="820" as="targetPoint" />
          </mxGeometry>
        </mxCell>
        <mxCell id="n6O8Phn_IgQ7xW1vVxIb-112" style="edgeStyle=orthogonalEdgeStyle;rounded=0;orthogonalLoop=1;jettySize=auto;html=1;" edge="1" parent="1" source="n6O8Phn_IgQ7xW1vVxIb-109" target="n6O8Phn_IgQ7xW1vVxIb-55">
          <mxGeometry relative="1" as="geometry">
            <Array as="points">
              <mxPoint x="1090" y="490" />
              <mxPoint x="1090" y="490" />
            </Array>
          </mxGeometry>
        </mxCell>
        <mxCell id="n6O8Phn_IgQ7xW1vVxIb-109" value="deploy" style="rhombus;whiteSpace=wrap;html=1;" vertex="1" parent="1">
          <mxGeometry x="1050" y="747" width="80" height="80" as="geometry" />
        </mxCell>
        <mxCell id="n6O8Phn_IgQ7xW1vVxIb-111" value="" style="endArrow=none;html=1;rounded=0;" edge="1" parent="1" source="n6O8Phn_IgQ7xW1vVxIb-109" target="n6O8Phn_IgQ7xW1vVxIb-98">
          <mxGeometry width="50" height="50" relative="1" as="geometry">
            <mxPoint x="1715" y="1030" as="sourcePoint" />
            <mxPoint x="1715" y="1070" as="targetPoint" />
            <Array as="points">
              <mxPoint x="1090" y="1090" />
            </Array>
          </mxGeometry>
        </mxCell>
        <mxCell id="n6O8Phn_IgQ7xW1vVxIb-116" value="" style="group" vertex="1" connectable="0" parent="1">
          <mxGeometry x="1010" y="-50.00000000000006" width="250" height="70" as="geometry" />
        </mxCell>
        <mxCell id="n6O8Phn_IgQ7xW1vVxIb-114" value="&lt;font style=&quot;text-align: left; white-space: nowrap;&quot; color=&quot;#000000&quot;&gt;&amp;nbsp; infinity-search-zabbix-agents&lt;/font&gt;&lt;div&gt;&lt;span style=&quot;caret-color: rgb(153, 153, 153); color: rgb(153, 153, 153); text-align: left; white-space: nowrap;&quot;&gt;&amp;nbsp;Monitoring Tools&lt;/span&gt;&lt;/div&gt;" style="rounded=0;whiteSpace=wrap;html=1;" vertex="1" parent="n6O8Phn_IgQ7xW1vVxIb-116">
          <mxGeometry width="250" height="70" as="geometry" />
        </mxCell>
        <mxCell id="n6O8Phn_IgQ7xW1vVxIb-115" value="" style="editableCssRules=.*;html=1;shape=image;verticalLabelPosition=bottom;labelBackgroundColor=#ffffff;verticalAlign=top;aspect=fixed;imageAspect=0;image=data:image/svg+xml,PHN2ZyB4bWxucz0iaHR0cDovL3d3dy53My5vcmcvMjAwMC9zdmciIHhtbG5zOnY9Imh0dHBzOi8vdmVjdGEuaW8vbmFubyIgd2lkdGg9IjIwIiBoZWlnaHQ9IjEzLjUyOTk5OTczMjk3MTE5MSIgdmlld0JveD0iLTIuOTMyMDk3ODk3ODEyMDE0ZS05IC01LjI1ODAxNTA0MTgzNzk1NmUtMTUgMjAgMTMuNTI5OTk5NzMyOTcxMTkxIj4mI3hhOwk8c3R5bGUgdHlwZT0idGV4dC9jc3MiPiYjeGE7CS5zdDB7ZmlsbDojNDI4NWY0O30mI3hhOwkuc3Qxe2ZpbGw6IzY2OWRmNjt9JiN4YTsJPC9zdHlsZT4mI3hhOwk8cGF0aCBjbGFzcz0ic3QxIiBkPSJNOC44MyAxMC41OGgyLjMzdjIuNjRIOC44M3oiLz4mI3hhOwk8cGF0aCBjbGFzcz0ic3QwIiBkPSJNMTYuNDggOC42MWEuNTYuNTYgMCAwIDEtLjQtLjE3TDEyIDQuMjEgOS4yNiA3LjFhLjU3LjU3IDAgMCAxLS43Ni4wNUw2LjQyIDUuNDdsLTIuMiAyLjkyYS41Ni41NiAwIDAgMS0uNDUuMjJIMHYxLjcxYS43NS43NSAwIDAgMCAuNzQuNzVoMTguNTJhLjc1Ljc1IDAgMCAwIC43NC0uNzVWOC42MXoiLz4mI3hhOwk8cGF0aCBjbGFzcz0ic3QxIiBkPSJNMy41IDcuNWwyLjM4LTMuMTZhLjU1LjU1IDAgMCAxIC4zNy0uMjIuNjMuNjMgMCAwIDEgLjQyLjEybDIuMTIgMS43MiAyLjgtMi45NGEuNTQuNTQgMCAwIDEgLjQtLjE3aDBhLjU0LjU0IDAgMCAxIC40LjE3bDQuMzMgNC40OEgyMFYuNzRhLjc0Ljc0IDAgMCAwLS43NC0uNzRILjc0QS43NC43NCAwIDAgMCAwIC43NHY2LjgxeiIvPiYjeGE7CTxyZWN0IGNsYXNzPSJzdDAiIHg9IjYuNjciIHk9IjEyLjkyIiB3aWR0aD0iNi42NyIgaGVpZ2h0PSIuNjEiIHJ4PSIuMyIvPiYjeGE7PC9zdmc+;" vertex="1" parent="n6O8Phn_IgQ7xW1vVxIb-116">
          <mxGeometry x="10" y="21" width="40" height="28.000000000000004" as="geometry" />
        </mxCell>
        <mxCell id="n6O8Phn_IgQ7xW1vVxIb-121" style="edgeStyle=orthogonalEdgeStyle;rounded=0;orthogonalLoop=1;jettySize=auto;html=1;" edge="1" parent="1" source="n6O8Phn_IgQ7xW1vVxIb-117" target="n6O8Phn_IgQ7xW1vVxIb-55">
          <mxGeometry relative="1" as="geometry">
            <Array as="points">
              <mxPoint x="1135" y="300" />
              <mxPoint x="1135" y="300" />
            </Array>
          </mxGeometry>
        </mxCell>
        <mxCell id="n6O8Phn_IgQ7xW1vVxIb-117" value="monitors" style="rhombus;whiteSpace=wrap;html=1;" vertex="1" parent="1">
          <mxGeometry x="1090" y="120" width="90" height="80" as="geometry" />
        </mxCell>
        <mxCell id="n6O8Phn_IgQ7xW1vVxIb-119" value="" style="endArrow=none;html=1;rounded=0;" edge="1" parent="1" source="n6O8Phn_IgQ7xW1vVxIb-114" target="n6O8Phn_IgQ7xW1vVxIb-117">
          <mxGeometry width="50" height="50" relative="1" as="geometry">
            <mxPoint x="1317" y="385" as="sourcePoint" />
            <mxPoint x="1410" y="385" as="targetPoint" />
          </mxGeometry>
        </mxCell>
        <mxCell id="n6O8Phn_IgQ7xW1vVxIb-125" value="" style="group" vertex="1" connectable="0" parent="1">
          <mxGeometry x="470" y="-53" width="260" height="76" as="geometry" />
        </mxCell>
        <mxCell id="n6O8Phn_IgQ7xW1vVxIb-123" value="&lt;font style=&quot;text-align: left; white-space: nowrap;&quot; color=&quot;#000000&quot;&gt;&amp;nbsp; Admin&lt;/font&gt;&lt;div&gt;&lt;span style=&quot;caret-color: rgb(153, 153, 153); color: rgb(153, 153, 153); text-align: left; white-space: nowrap;&quot;&gt;&amp;nbsp;IAM/ Admin&lt;/span&gt;&lt;/div&gt;" style="rounded=0;whiteSpace=wrap;html=1;" vertex="1" parent="n6O8Phn_IgQ7xW1vVxIb-125">
          <mxGeometry width="260" height="76" as="geometry" />
        </mxCell>
        <mxCell id="n6O8Phn_IgQ7xW1vVxIb-124" value="" style="sketch=0;pointerEvents=1;shadow=0;dashed=0;html=1;strokeColor=none;labelPosition=center;verticalLabelPosition=bottom;verticalAlign=top;align=center;fillColor=#515151;shape=mxgraph.mscae.system_center.admin_console" vertex="1" parent="n6O8Phn_IgQ7xW1vVxIb-125">
          <mxGeometry x="10" y="20" width="50" height="36" as="geometry" />
        </mxCell>
        <mxCell id="n6O8Phn_IgQ7xW1vVxIb-128" style="edgeStyle=orthogonalEdgeStyle;rounded=0;orthogonalLoop=1;jettySize=auto;html=1;" edge="1" parent="1" source="n6O8Phn_IgQ7xW1vVxIb-126" target="n6O8Phn_IgQ7xW1vVxIb-123">
          <mxGeometry relative="1" as="geometry" />
        </mxCell>
        <mxCell id="n6O8Phn_IgQ7xW1vVxIb-126" value="alerts" style="rhombus;whiteSpace=wrap;html=1;" vertex="1" parent="1">
          <mxGeometry x="820" y="-55" width="90" height="80" as="geometry" />
        </mxCell>
        <mxCell id="n6O8Phn_IgQ7xW1vVxIb-127" value="" style="endArrow=none;html=1;rounded=0;" edge="1" parent="1" source="n6O8Phn_IgQ7xW1vVxIb-114" target="n6O8Phn_IgQ7xW1vVxIb-126">
          <mxGeometry width="50" height="50" relative="1" as="geometry">
            <mxPoint x="1145" y="30" as="sourcePoint" />
            <mxPoint x="1145" y="130" as="targetPoint" />
          </mxGeometry>
        </mxCell>
        <mxCell id="n6O8Phn_IgQ7xW1vVxIb-129" value="" style="strokeColor=#dddddd;shadow=1;strokeWidth=1;rounded=1;absoluteArcSize=1;arcSize=2;" vertex="1" parent="1">
          <mxGeometry x="330" y="780" width="200" height="60" as="geometry" />
        </mxCell>
        <mxCell id="n6O8Phn_IgQ7xW1vVxIb-130" value="&lt;span style=&quot;caret-color: rgb(0, 0, 0); color: rgb(0, 0, 0);&quot;&gt;infinity-search-sql&lt;/span&gt;&lt;br&gt;Cloud SQL" style="editableCssRules=.*;html=1;fontColor=#999999;shape=image;verticalLabelPosition=middle;verticalAlign=middle;labelPosition=right;align=left;spacingLeft=20;part=1;points=[];imageAspect=0;image=data:image/svg+xml,PHN2ZyB4bWxucz0iaHR0cDovL3d3dy53My5vcmcvMjAwMC9zdmciIHhtbG5zOnY9Imh0dHBzOi8vdmVjdGEuaW8vbmFubyIgd2lkdGg9IjE0LjY1OTk5OTg0NzQxMjExIiBoZWlnaHQ9IjIwIiB2aWV3Qm94PSIwIDAgMTQuNjU5OTk5ODQ3NDEyMTEgMjAiPiYjeGE7CTxzdHlsZSB0eXBlPSJ0ZXh0L2NzcyI+JiN4YTsJLnN0MHtmaWxsOiM0Mjg1ZjQ7fSYjeGE7CS5zdDF7ZmlsbDojNjY5ZGY2O30mI3hhOwkuc3Qye2ZpbGw6I2FlY2JmYTt9JiN4YTsJPC9zdHlsZT4mI3hhOwk8c3R5bGU+JiN4YTsJCS5Ee2ZpbGwtcnVsZTpldmVub2RkfSYjeGE7CTwvc3R5bGU+JiN4YTsJPHBhdGggZD0iTTcuMzMgMTUuMzV2LTMuMDFMMCA4LjQ0djMuMDF6bTAgNC42NXYtMy4wMUwwIDEzLjA5djMuMDF6IiBjbGFzcz0ic3QyIEQiLz4mI3hhOwk8cGF0aCBkPSJNMTQuNjYgOC40NGwtNy4zMyAzLjl2My4wMWw3LjMzLTMuOXptMCA0LjY1bC03LjMzIDMuOVYyMGw3LjMzLTMuOXoiIGNsYXNzPSJzdDEgRCIvPiYjeGE7CTxwYXRoIGQ9Ik03LjMzIDB2My4wMWw3LjMzIDMuOVYzLjl6IiBjbGFzcz0ic3QwIEQiLz4mI3hhOwk8cGF0aCBkPSJNMCA2LjkxbDcuMzMtMy45VjBMMCAzLjl6IiBjbGFzcz0iRCBzdDEiLz4mI3hhOwk8cGF0aCBkPSJNNy4zMyAxMC43OVY3Ljc3TDAgMy44N3YzLjAyeiIgY2xhc3M9IkQgc3QyIi8+JiN4YTsJPHBhdGggZD0iTTE0LjY2IDMuODdsLTcuMzMgMy45djMuMDJsNy4zMy0zLjl6IiBjbGFzcz0iRCBzdDEiLz4mI3hhOzwvc3ZnPg==;" vertex="1" parent="n6O8Phn_IgQ7xW1vVxIb-129">
          <mxGeometry width="22" height="30" relative="1" as="geometry">
            <mxPoint x="19" y="15" as="offset" />
          </mxGeometry>
        </mxCell>
        <mxCell id="n6O8Phn_IgQ7xW1vVxIb-131" value="" style="strokeColor=#dddddd;shadow=1;strokeWidth=1;rounded=1;absoluteArcSize=1;arcSize=2;" vertex="1" parent="1">
          <mxGeometry x="1490" y="-45" width="210" height="60" as="geometry" />
        </mxCell>
        <mxCell id="n6O8Phn_IgQ7xW1vVxIb-132" value="&lt;span style=&quot;caret-color: rgb(0, 0, 0); color: rgb(0, 0, 0);&quot;&gt;infinity-search-storage&lt;/span&gt;&lt;br&gt;Cloud Storage" style="editableCssRules=.*;html=1;fontColor=#999999;shape=image;verticalLabelPosition=middle;verticalAlign=middle;labelPosition=right;align=left;spacingLeft=20;part=1;points=[];imageAspect=0;image=data:image/svg+xml,PHN2ZyB4bWxucz0iaHR0cDovL3d3dy53My5vcmcvMjAwMC9zdmciIHhtbG5zOnY9Imh0dHBzOi8vdmVjdGEuaW8vbmFubyIgd2lkdGg9IjIwIiBoZWlnaHQ9IjE2IiB2aWV3Qm94PSIwIDAgMjAgMTYiPiYjeGE7CTxzdHlsZSB0eXBlPSJ0ZXh0L2NzcyI+JiN4YTsJLnN0MHtmaWxsOiM0Mjg1ZjQ7fSYjeGE7CS5zdDF7ZmlsbDojNjY5ZGY2O30mI3hhOwkuc3Qye2ZpbGw6I2FlY2JmYTt9JiN4YTsJLnN0M3tmaWxsOiNmZmY7fSYjeGE7CTwvc3R5bGU+JiN4YTsJPHBhdGggY2xhc3M9InN0MiIgZD0iTTAgMGgyMHY3SDB6Ii8+JiN4YTsJPHBhdGggY2xhc3M9InN0MSIgZD0iTTE4IDBoMnY3aC0yeiIvPiYjeGE7CTxwYXRoIGNsYXNzPSJzdDAiIGQ9Ik0xOCA3bDItN2gtMnoiLz4mI3hhOwk8cGF0aCBjbGFzcz0ic3QxIiBkPSJNMCAwaDJ2N0gweiIvPiYjeGE7CTxnIGNsYXNzPSJzdDMiPiYjeGE7CQk8cGF0aCBkPSJNNCAzaDZ2MUg0eiIvPiYjeGE7CQk8cmVjdCB4PSIxMyIgeT0iMiIgd2lkdGg9IjMiIGhlaWdodD0iMyIgcng9IjEuNSIvPiYjeGE7CTwvZz4mI3hhOwk8cGF0aCBjbGFzcz0ic3QyIiBkPSJNMCA5aDIwdjdIMHoiLz4mI3hhOwk8cGF0aCBjbGFzcz0ic3QxIiBkPSJNMTggOWgydjdoLTJ6Ii8+JiN4YTsJPHBhdGggY2xhc3M9InN0MCIgZD0iTTE4IDE2bDItN2gtMnoiLz4mI3hhOwk8cGF0aCBjbGFzcz0ic3QxIiBkPSJNMCA5aDJ2N0gweiIvPiYjeGE7CTxnIGNsYXNzPSJzdDMiPiYjeGE7CQk8cGF0aCBkPSJNNCAxMmg2djFINHoiLz4mI3hhOwkJPHJlY3QgeD0iMTMiIHk9IjExIiB3aWR0aD0iMyIgaGVpZ2h0PSIzIiByeD0iMS41Ii8+JiN4YTsJPC9nPiYjeGE7PC9zdmc+;" vertex="1" parent="n6O8Phn_IgQ7xW1vVxIb-131">
          <mxGeometry width="30" height="24" relative="1" as="geometry">
            <mxPoint x="15" y="18" as="offset" />
          </mxGeometry>
        </mxCell>
        <mxCell id="n6O8Phn_IgQ7xW1vVxIb-136" style="edgeStyle=orthogonalEdgeStyle;rounded=0;orthogonalLoop=1;jettySize=auto;html=1;" edge="1" parent="1" source="n6O8Phn_IgQ7xW1vVxIb-134" target="n6O8Phn_IgQ7xW1vVxIb-135">
          <mxGeometry relative="1" as="geometry" />
        </mxCell>
        <mxCell id="n6O8Phn_IgQ7xW1vVxIb-134" value="storages" style="rhombus;whiteSpace=wrap;html=1;" vertex="1" parent="1">
          <mxGeometry x="1550" y="110" width="90" height="80" as="geometry" />
        </mxCell>
        <mxCell id="n6O8Phn_IgQ7xW1vVxIb-135" value="Backup and DR" style="sketch=0;html=1;verticalAlign=top;labelPosition=center;verticalLabelPosition=bottom;align=center;spacingTop=-6;fontSize=11;fontStyle=1;fontColor=#999999;shape=image;aspect=fixed;imageAspect=0;image=data:image/svg+xml,PHN2ZyB4bWxucz0iaHR0cDovL3d3dy53My5vcmcvMjAwMC9zdmciIGhlaWdodD0iMzUxLjkwMDM5MDYyNSIgdmlld0JveD0iMCAwIDM0NS41ODM5ODQzNzUgMzUxLjkwMDM5MDYyNSIgcHJlc2VydmVBc3BlY3RSYXRpbz0ieE1pZFlNaWQgbWVldCIgd2lkdGg9IjM0NS41ODM5ODQzNzUiIHZlcnNpb249IjEuMSIgaWQ9InN2Zzk4NyIgem9vbUFuZFBhbj0ibWFnbmlmeSI+JiN4YTsgIDxwYXRoIGQ9Ik0gMTcwLjIwODk4LDAgQyAxMjkuNDk4MjYsMCA4Ny41NDQyODYsMTkuMjU1NjM5IDU1LjIxNjc5Nyw1MC4wNDg4MjkgMjIuODg5MzA3LDgwLjg0MjAxOSAwLDEyMy44MDMxMSAwLDE3MS45Mjk2OSBjIDAsNjYuODM5OSA0MC4yNzM3NjUsMTE5LjY4Nzk4IDk2Ljc4NTE1NiwxNTUuMzc4OSBsIC0xMy42OTMzNTksMjQuNTkxOCA3Ni43NDYwOTMsLTYuOTA0MyAtMzYuOTUxMTcsLTY0LjU2NDQ1IC0xNC4xNjAxNiwyNS40Mjk2OSBDIDU3LjkyNDMxMywyNzMuNjU3OTkgMjQuNTY4MzU5LDIyOC41MjE0NCAyNC41NjgzNTksMTcxLjkyOTY5IGMgMCwtNDAuMzA3NjQgMTkuMzI4NzMzLC03Ny4xNzAxMzEgNDcuNTkxNzk3LC0xMDQuMDkxODAxIDI4LjI2MzA2NCwtMjYuOTIxNjcgNjUuMjczNzU0LC00My4yNzE0OCA5OC4wNDg4MjQsLTQzLjI3MTQ4IHoiIHN0eWxlPSJjb2xvcjojMDAwMDAwO29wYWNpdHk6MTtmaWxsOiM0Mjg1ZjQ7ZmlsbC1vcGFjaXR5OjE7LWlua3NjYXBlLXN0cm9rZTpub25lIi8+JiN4YTsgIDxwYXRoIGQ9Im0gMTcwLjIwODk4LDAgdiAyNC41NjY0MDkgYyA4OS44NDc4NiwwIDE1MC44MDg1OSw3NC42NjUyNyAxNTAuODA4NTksMTQ2LjUwMTk1MSBoIDI0LjU2NjQxIEMgMzQ1LjU4Mzk4LDg1LjQwOTAxOSAyNzMuNjIyMzksMCAxNzAuMjA4OTgsMCBaIiBzdHlsZT0iY29sb3I6IzAwMDAwMDtvcGFjaXR5OjE7ZmlsbDojNjY5ZGY2O2ZpbGwtb3BhY2l0eToxOy1pbmtzY2FwZS1zdHJva2U6bm9uZSIvPiYjeGE7ICA8cGF0aCBkPSJtIDMyMS4wMTc1NywxNzEuMDY4MzYgYyAwLDczLjM0NDc1IC00My4zNTQ2MiwxMjguMzA0NzUgLTEzNC4zMzU5MywxNDcuMDQyOTcgbCA0Ljk1NTA4LDI0LjA2MDU1IEMgMjkwLjg1NzkxLDMyMS43MzY2IDM0NS41ODM5OCwyNTQuNjQ5NTIgMzQ1LjU4Mzk4LDE3MS4wNjgzNiBaIiBzdHlsZT0iY29sb3I6IzAwMDAwMDtvcGFjaXR5OjE7ZmlsbDojYWVjYmZhO2ZpbGwtb3BhY2l0eToxOy1pbmtzY2FwZS1zdHJva2U6bm9uZSIvPiYjeGE7ICA8cGF0aCBkPSJtIDgwLjk3Mjg5NiwxODMuNjIyNyB2IDEyLjI4MzIgNTMuMzQzNzUgSCAyNjUuMTg1NzggViAxODMuNjIyNyBaIG0gMjQuNTY2NDA0LDI0LjU2NjQxIGggOTUuNDU1MDggdiAxNi40OTQxNCBIIDEwNS41MzkzIFogbSAxMjAuMDIzNDQsMCBoIDE1LjA1NjY0IHYgMTYuNDk0MTQgSCAyMjUuNTYyNzQgWiBNIDgwLjk3Mjg5Nyw5Mi43NDQxMzkgdiAxMi4yODMyMDEgNTMuMzQzNzUgSCAyNjUuMTg1NzggViA5Mi43NDQxMzkgWiBNIDEwNS41MzkzLDExNy4zMTA1NSBoIDk1LjQ1NTA4IHYgMTYuNDk0MTQgSCAxMDUuNTM5MyBaIG0gMTIwLjAyMzQ0LDAgaCAxNS4wNTY2NCB2IDE2LjQ5NDE0IGggLTE1LjA1NjY0IHoiIHN0eWxlPSJjb2xvcjojMDAwMDAwO29wYWNpdHk6MTtmaWxsOiNhZWNiZmE7ZmlsbC1vcGFjaXR5OjE7LWlua3NjYXBlLXN0cm9rZTpub25lIi8+JiN4YTs8L3N2Zz4=;" vertex="1" parent="1">
          <mxGeometry x="1820" y="105" width="90" height="90" as="geometry" />
        </mxCell>
        <mxCell id="n6O8Phn_IgQ7xW1vVxIb-137" value="" style="endArrow=none;html=1;rounded=0;" edge="1" parent="1" source="n6O8Phn_IgQ7xW1vVxIb-131" target="n6O8Phn_IgQ7xW1vVxIb-134">
          <mxGeometry width="50" height="50" relative="1" as="geometry">
            <mxPoint x="1145" y="30" as="sourcePoint" />
            <mxPoint x="1145" y="130" as="targetPoint" />
          </mxGeometry>
        </mxCell>
        <mxCell id="n6O8Phn_IgQ7xW1vVxIb-141" style="edgeStyle=orthogonalEdgeStyle;rounded=0;orthogonalLoop=1;jettySize=auto;html=1;" edge="1" parent="1" source="n6O8Phn_IgQ7xW1vVxIb-138" target="n6O8Phn_IgQ7xW1vVxIb-131">
          <mxGeometry relative="1" as="geometry">
            <Array as="points">
              <mxPoint x="1420" y="60" />
              <mxPoint x="1530" y="60" />
            </Array>
          </mxGeometry>
        </mxCell>
        <mxCell id="n6O8Phn_IgQ7xW1vVxIb-138" value="receives data from" style="rhombus;whiteSpace=wrap;html=1;" vertex="1" parent="1">
          <mxGeometry x="1360" y="130" width="120" height="110" as="geometry" />
        </mxCell>
        <mxCell id="n6O8Phn_IgQ7xW1vVxIb-140" value="" style="endArrow=none;html=1;rounded=0;" edge="1" parent="1" source="n6O8Phn_IgQ7xW1vVxIb-68" target="n6O8Phn_IgQ7xW1vVxIb-138">
          <mxGeometry width="50" height="50" relative="1" as="geometry">
            <mxPoint x="1605" y="25" as="sourcePoint" />
            <mxPoint x="1605" y="120" as="targetPoint" />
          </mxGeometry>
        </mxCell>
        <mxCell id="n6O8Phn_IgQ7xW1vVxIb-142" value="" style="group" vertex="1" connectable="0" parent="1">
          <mxGeometry x="-10" y="260.05" width="90" height="230" as="geometry" />
        </mxCell>
        <mxCell id="Lif8JBEafslfNm7ranTe-3" value="Multiple&lt;br&gt;Clients&lt;br&gt;API Requests&lt;br&gt;" style="rounded=1;absoluteArcSize=1;arcSize=2;html=1;strokeColor=none;gradientColor=none;shadow=0;dashed=0;fontSize=12;fontColor=#9E9E9E;align=left;verticalAlign=top;spacing=10;spacingTop=-4;fillColor=#F1F8E9;" parent="n6O8Phn_IgQ7xW1vVxIb-142" vertex="1">
          <mxGeometry width="90" height="230" as="geometry" />
        </mxCell>
        <mxCell id="Lif8JBEafslfNm7ranTe-6" value="" style="strokeColor=#dddddd;fillColor=#ffffff;shadow=1;strokeWidth=1;rounded=1;absoluteArcSize=1;arcSize=2;labelPosition=center;verticalLabelPosition=middle;align=center;verticalAlign=bottom;spacingLeft=0;fontColor=#999999;fontSize=12;whiteSpace=wrap;spacingBottom=2;html=1;" parent="n6O8Phn_IgQ7xW1vVxIb-142" vertex="1">
          <mxGeometry x="10" y="60" width="70" height="70" as="geometry" />
        </mxCell>
        <mxCell id="Lif8JBEafslfNm7ranTe-7" value="" style="dashed=0;connectable=0;html=1;fillColor=#757575;strokeColor=none;shape=mxgraph.gcp2.mobile_devices;part=1;" parent="Lif8JBEafslfNm7ranTe-6" vertex="1">
          <mxGeometry x="0.5" width="50" height="36.5" relative="1" as="geometry">
            <mxPoint x="-25" y="16.75" as="offset" />
          </mxGeometry>
        </mxCell>
        <mxCell id="Lif8JBEafslfNm7ranTe-9" value="" style="strokeColor=#dddddd;fillColor=#ffffff;shadow=1;strokeWidth=1;rounded=1;absoluteArcSize=1;arcSize=2;labelPosition=center;verticalLabelPosition=middle;align=center;verticalAlign=bottom;spacingLeft=0;fontColor=#999999;fontSize=12;whiteSpace=wrap;spacingBottom=2;html=1;" parent="n6O8Phn_IgQ7xW1vVxIb-142" vertex="1">
          <mxGeometry x="10" y="149.5" width="70" height="70" as="geometry" />
        </mxCell>
        <mxCell id="Lif8JBEafslfNm7ranTe-10" value="" style="dashed=0;connectable=0;html=1;fillColor=#757575;strokeColor=none;shape=mxgraph.gcp2.laptop;part=1;" parent="Lif8JBEafslfNm7ranTe-9" vertex="1">
          <mxGeometry x="0.5" width="50" height="33" relative="1" as="geometry">
            <mxPoint x="-25" y="18.5" as="offset" />
          </mxGeometry>
        </mxCell>
        <mxCell id="n6O8Phn_IgQ7xW1vVxIb-146" style="edgeStyle=orthogonalEdgeStyle;rounded=0;orthogonalLoop=1;jettySize=auto;html=1;" edge="1" parent="1" source="n6O8Phn_IgQ7xW1vVxIb-143" target="Lif8JBEafslfNm7ranTe-3">
          <mxGeometry relative="1" as="geometry" />
        </mxCell>
        <mxCell id="n6O8Phn_IgQ7xW1vVxIb-143" value="distributes" style="rhombus;whiteSpace=wrap;html=1;" vertex="1" parent="1">
          <mxGeometry x="200" y="335.05" width="90" height="80" as="geometry" />
        </mxCell>
        <mxCell id="n6O8Phn_IgQ7xW1vVxIb-145" value="" style="endArrow=none;html=1;rounded=0;" edge="1" parent="1" source="n6O8Phn_IgQ7xW1vVxIb-38" target="n6O8Phn_IgQ7xW1vVxIb-143">
          <mxGeometry width="50" height="50" relative="1" as="geometry">
            <mxPoint x="705" y="386" as="sourcePoint" />
            <mxPoint x="810" y="385" as="targetPoint" />
          </mxGeometry>
        </mxCell>
        <mxCell id="n6O8Phn_IgQ7xW1vVxIb-147" value="Terraform" style="rounded=0;whiteSpace=wrap;html=1;" vertex="1" parent="1">
          <mxGeometry x="670" y="1061.47" width="330" height="70" as="geometry" />
        </mxCell>
        <mxCell id="n6O8Phn_IgQ7xW1vVxIb-150" style="edgeStyle=orthogonalEdgeStyle;rounded=0;orthogonalLoop=1;jettySize=auto;html=1;" edge="1" parent="1" source="n6O8Phn_IgQ7xW1vVxIb-148" target="n6O8Phn_IgQ7xW1vVxIb-55">
          <mxGeometry relative="1" as="geometry">
            <Array as="points">
              <mxPoint x="1020" y="840" />
            </Array>
          </mxGeometry>
        </mxCell>
        <mxCell id="n6O8Phn_IgQ7xW1vVxIb-148" value="Configures" style="rhombus;whiteSpace=wrap;html=1;" vertex="1" parent="1">
          <mxGeometry x="790" y="800" width="90" height="80" as="geometry" />
        </mxCell>
        <mxCell id="n6O8Phn_IgQ7xW1vVxIb-149" value="" style="endArrow=none;html=1;rounded=0;" edge="1" parent="1" source="n6O8Phn_IgQ7xW1vVxIb-148" target="n6O8Phn_IgQ7xW1vVxIb-147">
          <mxGeometry width="50" height="50" relative="1" as="geometry">
            <mxPoint x="1100" y="837" as="sourcePoint" />
            <mxPoint x="1580" y="1105" as="targetPoint" />
          </mxGeometry>
        </mxCell>
        <mxCell id="n6O8Phn_IgQ7xW1vVxIb-154" style="edgeStyle=orthogonalEdgeStyle;rounded=0;orthogonalLoop=1;jettySize=auto;html=1;" edge="1" parent="1" source="n6O8Phn_IgQ7xW1vVxIb-151" target="n6O8Phn_IgQ7xW1vVxIb-129">
          <mxGeometry relative="1" as="geometry" />
        </mxCell>
        <mxCell id="n6O8Phn_IgQ7xW1vVxIb-151" value="manages" style="rhombus;whiteSpace=wrap;html=1;" vertex="1" parent="1">
          <mxGeometry x="580" y="880" width="90" height="80" as="geometry" />
        </mxCell>
        <mxCell id="n6O8Phn_IgQ7xW1vVxIb-155" value="" style="endArrow=none;html=1;rounded=0;" edge="1" parent="1" source="n6O8Phn_IgQ7xW1vVxIb-151" target="n6O8Phn_IgQ7xW1vVxIb-147">
          <mxGeometry width="50" height="50" relative="1" as="geometry">
            <mxPoint x="845" y="890" as="sourcePoint" />
            <mxPoint x="845" y="1071" as="targetPoint" />
          </mxGeometry>
        </mxCell>
        <mxCell id="n6O8Phn_IgQ7xW1vVxIb-158" style="edgeStyle=orthogonalEdgeStyle;rounded=0;orthogonalLoop=1;jettySize=auto;html=1;" edge="1" parent="1" source="n6O8Phn_IgQ7xW1vVxIb-156" target="n6O8Phn_IgQ7xW1vVxIb-123">
          <mxGeometry relative="1" as="geometry">
            <Array as="points">
              <mxPoint x="-150" y="880" />
              <mxPoint x="-150" y="-15" />
            </Array>
          </mxGeometry>
        </mxCell>
        <mxCell id="n6O8Phn_IgQ7xW1vVxIb-156" value="sets up" style="rhombus;whiteSpace=wrap;html=1;" vertex="1" parent="1">
          <mxGeometry x="-10" y="840" width="90" height="80" as="geometry" />
        </mxCell>
        <mxCell id="n6O8Phn_IgQ7xW1vVxIb-157" value="" style="endArrow=none;html=1;rounded=0;exitX=1;exitY=1;exitDx=0;exitDy=0;" edge="1" parent="1" source="n6O8Phn_IgQ7xW1vVxIb-156" target="n6O8Phn_IgQ7xW1vVxIb-147">
          <mxGeometry width="50" height="50" relative="1" as="geometry">
            <mxPoint x="658" y="949" as="sourcePoint" />
            <mxPoint x="803" y="1071" as="targetPoint" />
          </mxGeometry>
        </mxCell>
        <mxCell id="n6O8Phn_IgQ7xW1vVxIb-160" style="edgeStyle=orthogonalEdgeStyle;rounded=0;orthogonalLoop=1;jettySize=auto;html=1;" edge="1" parent="1" source="n6O8Phn_IgQ7xW1vVxIb-159" target="n6O8Phn_IgQ7xW1vVxIb-57">
          <mxGeometry relative="1" as="geometry" />
        </mxCell>
        <mxCell id="n6O8Phn_IgQ7xW1vVxIb-159" value="manages" style="rhombus;whiteSpace=wrap;html=1;" vertex="1" parent="1">
          <mxGeometry x="790" y="1201" width="90" height="80" as="geometry" />
        </mxCell>
        <mxCell id="n6O8Phn_IgQ7xW1vVxIb-161" value="" style="endArrow=none;html=1;rounded=0;" edge="1" parent="1" source="n6O8Phn_IgQ7xW1vVxIb-159" target="n6O8Phn_IgQ7xW1vVxIb-147">
          <mxGeometry width="50" height="50" relative="1" as="geometry">
            <mxPoint x="845" y="890" as="sourcePoint" />
            <mxPoint x="845" y="1071" as="targetPoint" />
          </mxGeometry>
        </mxCell>
      </root>
    </mxGraphModel>
  </diagram>
</mxfile>
